<mxfile host="app.diagrams.net" agent="Mozilla/5.0 (Macintosh; Intel Mac OS X 10_15_7) AppleWebKit/605.1.15 (KHTML, like Gecko) Version/17.3.1 Safari/605.1.15" version="26.0.5">
  <diagram name="Page-1" id="0iiflbKNi_KPz_6Mcw5q">
    <mxGraphModel dx="1026" dy="602" grid="1" gridSize="10" guides="1" tooltips="1" connect="1" arrows="1" fold="1" page="1" pageScale="1" pageWidth="850" pageHeight="1100" math="0" shadow="0">
      <root>
        <mxCell id="0" />
        <mxCell id="1" parent="0" />
        <mxCell id="XGSXmKZrx4TpGjIMWXul-11" style="edgeStyle=orthogonalEdgeStyle;rounded=0;orthogonalLoop=1;jettySize=auto;html=1;entryX=0.5;entryY=0;entryDx=0;entryDy=0;" edge="1" parent="1" source="XGSXmKZrx4TpGjIMWXul-1" target="XGSXmKZrx4TpGjIMWXul-2">
          <mxGeometry relative="1" as="geometry" />
        </mxCell>
        <mxCell id="XGSXmKZrx4TpGjIMWXul-13" style="edgeStyle=orthogonalEdgeStyle;rounded=0;orthogonalLoop=1;jettySize=auto;html=1;entryX=0.5;entryY=0;entryDx=0;entryDy=0;" edge="1" parent="1" source="XGSXmKZrx4TpGjIMWXul-1" target="XGSXmKZrx4TpGjIMWXul-5">
          <mxGeometry relative="1" as="geometry" />
        </mxCell>
        <mxCell id="XGSXmKZrx4TpGjIMWXul-1" value="Home Page" style="rounded=1;whiteSpace=wrap;html=1;" vertex="1" parent="1">
          <mxGeometry x="270" y="70" width="120" height="60" as="geometry" />
        </mxCell>
        <mxCell id="XGSXmKZrx4TpGjIMWXul-12" style="edgeStyle=orthogonalEdgeStyle;rounded=0;orthogonalLoop=1;jettySize=auto;html=1;" edge="1" parent="1" source="XGSXmKZrx4TpGjIMWXul-2" target="XGSXmKZrx4TpGjIMWXul-3">
          <mxGeometry relative="1" as="geometry" />
        </mxCell>
        <mxCell id="XGSXmKZrx4TpGjIMWXul-2" value="Marketplace page" style="rounded=1;whiteSpace=wrap;html=1;" vertex="1" parent="1">
          <mxGeometry x="150" y="210" width="120" height="60" as="geometry" />
        </mxCell>
        <mxCell id="XGSXmKZrx4TpGjIMWXul-3" value="Individual Listing Page" style="rounded=1;whiteSpace=wrap;html=1;" vertex="1" parent="1">
          <mxGeometry x="150" y="310" width="120" height="60" as="geometry" />
        </mxCell>
        <mxCell id="XGSXmKZrx4TpGjIMWXul-14" style="edgeStyle=orthogonalEdgeStyle;rounded=0;orthogonalLoop=1;jettySize=auto;html=1;entryX=0;entryY=0.5;entryDx=0;entryDy=0;" edge="1" parent="1" source="XGSXmKZrx4TpGjIMWXul-5" target="XGSXmKZrx4TpGjIMWXul-7">
          <mxGeometry relative="1" as="geometry" />
        </mxCell>
        <mxCell id="XGSXmKZrx4TpGjIMWXul-15" style="edgeStyle=orthogonalEdgeStyle;rounded=0;orthogonalLoop=1;jettySize=auto;html=1;entryX=0.5;entryY=0;entryDx=0;entryDy=0;" edge="1" parent="1" source="XGSXmKZrx4TpGjIMWXul-5" target="XGSXmKZrx4TpGjIMWXul-6">
          <mxGeometry relative="1" as="geometry" />
        </mxCell>
        <mxCell id="XGSXmKZrx4TpGjIMWXul-16" style="edgeStyle=orthogonalEdgeStyle;rounded=0;orthogonalLoop=1;jettySize=auto;html=1;entryX=0.5;entryY=0;entryDx=0;entryDy=0;" edge="1" parent="1" source="XGSXmKZrx4TpGjIMWXul-5" target="XGSXmKZrx4TpGjIMWXul-9">
          <mxGeometry relative="1" as="geometry" />
        </mxCell>
        <mxCell id="XGSXmKZrx4TpGjIMWXul-5" value="Account Page" style="rounded=1;whiteSpace=wrap;html=1;" vertex="1" parent="1">
          <mxGeometry x="370" y="210" width="120" height="60" as="geometry" />
        </mxCell>
        <mxCell id="XGSXmKZrx4TpGjIMWXul-6" value="Create Listing Page" style="rounded=1;whiteSpace=wrap;html=1;" vertex="1" parent="1">
          <mxGeometry x="305" y="380" width="120" height="60" as="geometry" />
        </mxCell>
        <mxCell id="XGSXmKZrx4TpGjIMWXul-7" value="My Listings" style="rounded=1;whiteSpace=wrap;html=1;" vertex="1" parent="1">
          <mxGeometry x="580" y="270" width="120" height="60" as="geometry" />
        </mxCell>
        <mxCell id="XGSXmKZrx4TpGjIMWXul-9" value="Transactions and Offers" style="rounded=1;whiteSpace=wrap;html=1;" vertex="1" parent="1">
          <mxGeometry x="460" y="380" width="120" height="60" as="geometry" />
        </mxCell>
      </root>
    </mxGraphModel>
  </diagram>
</mxfile>
